<?xml version="1.0" encoding="UTF-8" standalone="no"?>
<!-- Created with Inkscape (http://www.inkscape.org/) -->

<svg
   xmlns:dc="http://purl.org/dc/elements/1.1/"
   xmlns:cc="http://creativecommons.org/ns#"
   xmlns:rdf="http://www.w3.org/1999/02/22-rdf-syntax-ns#"
   xmlns:svg="http://www.w3.org/2000/svg"
   xmlns="http://www.w3.org/2000/svg"
   xmlns:xlink="http://www.w3.org/1999/xlink"
   xmlns:sodipodi="http://sodipodi.sourceforge.net/DTD/sodipodi-0.dtd"
   xmlns:inkscape="http://www.inkscape.org/namespaces/inkscape"
   width="200"
   height="30"
   id="svg2"
   version="1.1"
   inkscape:version="0.48.2 r9819"
   sodipodi:docname="header.svg"
   inkscape:export-filename="/home/smeghead/eclipse/webaddigest/res/drawable-hdpi/header.png"
   inkscape:export-xdpi="119.47466"
   inkscape:export-ydpi="119.47466">
  <defs
     id="defs4">
    <linearGradient
       inkscape:collect="always"
       id="linearGradient3812">
      <stop
         style="stop-color:#000000;stop-opacity:1;"
         offset="0"
         id="stop3814" />
      <stop
         style="stop-color:#000000;stop-opacity:0;"
         offset="1"
         id="stop3816" />
    </linearGradient>
    <linearGradient
       id="linearGradient3802">
      <stop
         id="stop3804"
         offset="0"
         style="stop-color:#000000;stop-opacity:1;" />
      <stop
         id="stop3806"
         offset="1"
         style="stop-color:#000000;stop-opacity:0;" />
    </linearGradient>
    <linearGradient
       id="linearGradient3759">
      <stop
         style="stop-color:#000000;stop-opacity:1;"
         offset="0"
         id="stop3796" />
      <stop
         style="stop-color:#000000;stop-opacity:0;"
         offset="1"
         id="stop3763" />
    </linearGradient>
    <linearGradient
       inkscape:collect="always"
       xlink:href="#linearGradient3802"
       id="linearGradient3769"
       x1="0"
       y1="15"
       x2="200"
       y2="15"
       gradientUnits="userSpaceOnUse"
       spreadMethod="pad"
       gradientTransform="translate(0,1022.3623)" />
    <linearGradient
       inkscape:collect="always"
       xlink:href="#linearGradient3812"
       id="linearGradient3818"
       x1="0"
       y1="1037.3622"
       x2="200"
       y2="1037.3622"
       gradientUnits="userSpaceOnUse"
       gradientTransform="translate(0,4.1738281e-4)" />
  </defs>
  <sodipodi:namedview
     id="base"
     pagecolor="#ffffff"
     bordercolor="#666666"
     borderopacity="1.0"
     inkscape:pageopacity="0.0"
     inkscape:pageshadow="2"
     inkscape:zoom="4.56"
     inkscape:cx="86.191532"
     inkscape:cy="15"
     inkscape:document-units="px"
     inkscape:current-layer="layer1"
     showgrid="true"
     inkscape:window-width="1440"
     inkscape:window-height="845"
     inkscape:window-x="0"
     inkscape:window-y="0"
     inkscape:window-maximized="1">
    <inkscape:grid
       type="xygrid"
       id="grid3753"
       empspacing="5"
       visible="true"
       enabled="true"
       snapvisiblegridlinesonly="true"
       spacingx="10px"
       spacingy="10px" />
  </sodipodi:namedview>
  <metadata
     id="metadata7">
    <rdf:RDF>
      <cc:Work
         rdf:about="">
        <dc:format>image/svg+xml</dc:format>
        <dc:type
           rdf:resource="http://purl.org/dc/dcmitype/StillImage" />
        <dc:title></dc:title>
      </cc:Work>
    </rdf:RDF>
  </metadata>
  <g
     inkscape:label="レイヤー 1"
     inkscape:groupmode="layer"
     id="layer1"
     transform="translate(0,-1022.3622)">
    <rect
       style="opacity:1;fill:#3333ff;fill-opacity:1;fill-rule:nonzero;stroke:none"
       id="rect3755"
       width="200"
       height="30"
       x="0"
       y="1022.3622"
       rx="0"
       ry="0" />
    <rect
       ry="0"
       rx="0"
       y="1022.3622"
       x="0"
       height="30"
       width="200"
       id="rect3810"
       style="opacity:0.63103452;fill:url(#linearGradient3818);fill-opacity:1;fill-rule:nonzero;stroke:none"
       inkscape:export-xdpi="120"
       inkscape:export-ydpi="120"
       inkscape:export-filename="/home/smeghead/eclipse/RockNews/res/drawable-hdpi/header.png" />
    <g
       style="font-size:13px;font-style:normal;font-variant:normal;font-weight:normal;font-stretch:normal;text-align:justify;line-height:125%;letter-spacing:0px;word-spacing:0px;writing-mode:lr-tb;text-anchor:start;fill:#ffff00;fill-opacity:1;stroke:none;font-family:'Takaoゴシック';-inkscape-font-specification:'Takaoゴシック'"
       id="text3773"
       transform="matrix(0.46614492,0,0,1.3092152,31.640879,-304.30677)"
       inkscape:export-filename="/home/smeghead/eclipse/RockNews/res/drawable-hdpi/header.png"
       inkscape:export-xdpi="120"
       inkscape:export-ydpi="120">
      <g
         transform="scale(1.5129065,0.66097938)"
         style="font-size:55.4679718px;fill:#ffffb4;font-family:'VL Pゴシック';-inkscape-font-specification:'VL Pゴシック'"
         id="text3776">
        <path
           d="m -38.428227,1543.9971 7.534399,0 0,-3.6979 1.779598,0 0,3.6979 7.927297,0 0,3.7672 c -2e-5,3.6054 -1.117082,6.4327 -3.35119,8.482 -2.234141,2.0492 -5.477473,3.2048 -9.730006,3.4667 l -0.161782,-1.6178 c 3.774893,-0.2465 6.633031,-1.2403 8.574424,-2.9814 1.941361,-1.7565 2.91205,-4.2063 2.912068,-7.3495 l 0,-2.1956 -13.751434,0 0,5.6623 -1.733374,0 0,-7.2339"
           style="font-size:23.11165428px;fill:#ffffb4;font-family:'VL Pゴシック';-inkscape-font-specification:'VL Pゴシック'"
           id="path3769"
           inkscape:connector-curvature="0" />
        <path
           d="m -13.305859,1546.1002 13.21986641,0 0,1.4792 -5.75480191,0 0,9.6838 6.30948161,0 0,1.4791 -14.32922611,0 0,-1.4791 6.3094821,0 0,-9.6838 -5.7548021,0 0,-1.4792"
           style="font-size:23.11165428px;fill:#ffffb4;font-family:'VL Pゴシック';-inkscape-font-specification:'VL Pゴシック'"
           id="path3771"
           inkscape:connector-curvature="0" />
        <path
           d="m 21.107394,1540.8539 1.363588,-0.8089 c 0.677924,0.9861 1.417496,2.1571 2.218719,3.513 l -1.063136,0.5546 c -0.184912,4.7919 -1.440644,8.4127 -3.7672,10.8625 -2.311178,2.4498 -5.816442,3.9213 -10.5158026,4.4143 l -0.2311166,-1.6178 c 4.2063122,-0.493 7.3186792,-1.795 9.3371082,-3.9058 2.03381,-2.1263 3.127761,-5.2387 3.281855,-9.3372 l -14.7221237,0 0,-1.6871 15.4385847,0 c -0.523881,-0.8166 -0.970706,-1.4791 -1.340476,-1.9876 m 2.93518,-0.7858 1.3867,-0.8089 c 0.67792,0.9861 1.440604,2.1956 2.288054,3.6285 l -1.3867,0.7165 c -0.785817,-1.3405 -1.548501,-2.5192 -2.288054,-3.5361"
           style="font-size:23.11165428px;fill:#ffffb4;font-family:'VL Pゴシック';-inkscape-font-specification:'VL Pゴシック'"
           id="path3773"
           inkscape:connector-curvature="0" />
        <path
           d="m 43.063464,1551.9244 1.525369,-0.832 c 1.895137,2.8504 3.643917,5.7702 5.246346,8.7593 l -1.548481,0.8089 -1.271141,-2.2881 c -5.392733,0.9091 -10.392549,1.4561 -14.999464,1.641 l -0.09245,-1.5948 c 0.539267,-0.015 1.363582,-0.054 2.472947,-0.1155 1.756477,-4.1447 3.366588,-8.559 4.830335,-13.243 l 1.802709,0.3929 c -1.417526,4.4837 -2.966005,8.7131 -4.645442,12.6883 3.297251,-0.2619 6.571399,-0.6548 9.822453,-1.1787 -1.078561,-1.8181 -2.126288,-3.4975 -3.143185,-5.0383 m -2.149384,-9.5914 8.389531,0 0,1.5716 -16.75595,0 0,5.0384 c -4e-6,4.761 -0.7858,8.6129 -2.357388,11.5558 l -1.363588,-1.3636 c 1.309658,-2.7118 1.964488,-6.4635 1.964491,-11.2554 l 0,-5.5468 8.273972,0 0,-2.7503 1.848932,0 0,2.7503"
           style="font-size:23.11165428px;fill:#ffffb4;font-family:'VL Pゴシック';-inkscape-font-specification:'VL Pゴシック'"
           id="path3775"
           inkscape:connector-curvature="0" />
        <path
           d="m 70.196548,1560.5912 -1.825821,0 0,-1.248 -11.46338,0 0,1.248 -1.825821,0 0,-8.8286 15.115022,0 0,8.8286 m 1.386699,-18.027 0,1.456 -7.742404,0 0,4.345 8.967322,0 0,1.5485 -20.338256,0 0,-1.5485 9.522002,0 0,-4.345 -5.315681,0 c -0.647131,1.2326 -1.471446,2.4498 -2.472947,3.6516 l -1.548481,-0.9244 c 1.648629,-2.0647 2.912064,-4.2834 3.790312,-6.6562 l 1.710262,0.4622 c -0.308162,0.8937 -0.56239,1.5639 -0.762684,2.0108 l 4.599219,0 0,-2.5423 1.848932,0 0,2.5423 7.742404,0 m -14.6759,15.3692 11.46338,0 0,-4.7148 -11.46338,0 0,4.7148"
           style="font-size:23.11165428px;fill:#ffffb4;font-family:'VL Pゴシック';-inkscape-font-specification:'VL Pゴシック'"
           id="path3777"
           inkscape:connector-curvature="0" />
        <path
           d="m 90.950816,1540.669 1.201806,-0.7165 c 0.708738,1.0324 1.402087,2.1263 2.080048,3.2819 l -0.924466,0.4853 c -0.04624,5.1308 -1.29427,8.9674 -3.744088,11.5096 -2.43444,2.5423 -6.270971,4.0369 -11.509604,4.4837 l -0.254228,-1.6178 c 5.485157,-0.4777 9.283168,-2.1802 11.394046,-5.1077 -2.295771,-1.1864 -4.761011,-2.3574 -7.39573,-3.513 l 0.808908,-1.5484 c 2.742572,1.2018 5.238628,2.3805 7.488176,3.536 0.816595,-1.7256 1.271124,-3.8596 1.363588,-6.4019 l -9.452667,0 c -0.909065,2.5577 -2.34969,4.7687 -4.321879,6.6331 l -1.201806,-1.1094 c 2.742578,-2.6039 4.344984,-5.9089 4.807224,-9.9149 l 1.687151,0.023 c -0.09246,0.9553 -0.254237,1.8721 -0.485345,2.7503 l 10.284686,0 c -0.462251,-0.755 -1.070857,-1.6794 -1.82582,-2.7734 m 2.750286,-0.7396 1.224918,-0.7164 c 0.724144,1.0631 1.440604,2.1802 2.149384,3.3512 l -1.224918,0.6471 c -0.755001,-1.248 -1.471462,-2.342 -2.149384,-3.2819"
           style="font-size:23.11165428px;fill:#ffffb4;font-family:'VL Pゴシック';-inkscape-font-specification:'VL Pゴシック'"
           id="path3779"
           inkscape:connector-curvature="0" />
        <path
           d="m 99.548345,1550.191 c 3.328075,-0.4622 6.563705,-1.4714 9.706895,-3.0276 3.14317,-1.5562 5.69315,-3.4051 7.64996,-5.5468 l 1.13247,1.248 c -1.87977,2.003 -4.18323,3.7364 -6.91039,5.2001 l 0,11.8332 -1.87204,0 0,-10.8856 c -3.08156,1.4329 -6.22474,2.3805 -9.429555,2.8427 l -0.27734,-1.664"
           style="font-size:23.11165428px;fill:#ffffb4;font-family:'VL Pゴシック';-inkscape-font-specification:'VL Pゴシック'"
           id="path3781"
           inkscape:connector-curvature="0" />
        <path
           d="m 136.08788,1540.8539 1.36359,-0.8089 c 0.70874,1.0477 1.48683,2.2572 2.33427,3.6285 l -1.36358,0.7165 c -0.755,-1.2326 -1.53309,-2.4113 -2.33428,-3.5361 m 5.45435,2.8658 c -0.70878,-1.1709 -1.50998,-2.3882 -2.40361,-3.6516 l 1.3867,-0.8089 c 0.87822,1.2634 1.67942,2.5038 2.40361,3.721 l -1.3867,0.7395 m -17.40308,14.1444 c 4.73018,-0.416 8.26626,-1.5639 10.60825,-3.4437 2.34197,-1.8797 3.92126,-4.8303 4.73789,-8.8517 l 1.71027,0.2773 c -0.90908,4.4066 -2.68097,7.6885 -5.31568,9.8456 -2.61934,2.1417 -6.45587,3.4282 -11.50961,3.8596 l -0.23112,-1.6871 m -0.97068,-8.9905 0.32356,-1.6409 c 1.9876,0.339 4.49136,0.8089 7.51129,1.4098 l -0.32357,1.6641 c -2.80422,-0.5701 -5.30798,-1.0478 -7.51128,-1.433 m 0.9938,-5.6854 0.32356,-1.6641 c 2.68094,0.4315 5.30026,0.9091 7.85796,1.433 l -0.32356,1.6409 c -3.26646,-0.6317 -5.88577,-1.1017 -7.85796,-1.4098"
           style="font-size:23.11165428px;fill:#ffffb4;font-family:'VL Pゴシック';-inkscape-font-specification:'VL Pゴシック'"
           id="path3783"
           inkscape:connector-curvature="0" />
        <path
           d="m 148.47572,1546.1002 13.21987,0 0,1.4792 -5.7548,0 0,9.6838 6.30948,0 0,1.4791 -14.32923,0 0,-1.4791 6.30948,0 0,-9.6838 -5.7548,0 0,-1.4792"
           style="font-size:23.11165428px;fill:#ffffb4;font-family:'VL Pゴシック';-inkscape-font-specification:'VL Pゴシック'"
           id="path3785"
           inkscape:connector-curvature="0" />
        <path
           d="m 171.03269,1542.2868 14.32923,0 0,1.6641 c -1.06316,2.6039 -2.7272,5.123 -4.99212,7.5575 2.6039,2.4344 4.89965,4.6993 6.88727,6.7948 l -1.24803,1.2018 c -2.04925,-2.1879 -4.3296,-4.4528 -6.84105,-6.7948 -2.60392,2.5114 -5.71629,4.6839 -9.33711,6.5175 l -0.78579,-1.4792 c 3.46674,-1.8027 6.42503,-3.8827 8.87487,-6.2401 2.46523,-2.3728 4.29105,-4.892 5.47747,-7.5575 l -12.36474,0 0,-1.6641"
           style="font-size:23.11165428px;fill:#ffffb4;font-family:'VL Pゴシック';-inkscape-font-specification:'VL Pゴシック'"
           id="path3787"
           inkscape:connector-curvature="0" />
        <path
           d="m 197.44932,1541.1312 0,6.7486 c 4.25253,1.017 8.559,2.342 12.91942,3.9752 l -0.55468,1.6872 c -4.19093,-1.6024 -8.31251,-2.889 -12.36474,-3.8597 l 0,10.2616 -1.84893,0 0,-18.8129 1.84893,0"
           style="font-size:23.11165428px;fill:#ffffb4;font-family:'VL Pゴシック';-inkscape-font-specification:'VL Pゴシック'"
           id="path3789"
           inkscape:connector-curvature="0" />
      </g>
    </g>
  </g>
</svg>
